<svg width="218" height="110" viewBox="0 0 218 110" fill="none" xmlns="http://www.w3.org/2000/svg">
<path d="M182.541 47.4796C183.928 44.872 184.706 42.0206 184.706 39.0474C184.706 26.1311 170.158 15.6517 152.228 15.6517C145.563 15.6517 139.338 17.114 134.195 19.5998C124.824 7.90191 107.333 0.0545959 87.271 0.0545959C57.3639 0.0545959 33.1406 17.5039 33.1406 39.0474C33.1406 39.7054 33.1744 40.3635 33.2082 41.0215C14.2626 45.8225 0.662292 58.8363 0.662292 74.141C0.662292 93.5156 22.4836 109.235 49.3797 109.235H173.88C197.799 109.235 217.184 95.2703 217.184 78.0403C217.184 62.9549 202.298 50.3554 182.541 47.4796ZM133.755 62.4431H111.63V89.7381C111.63 91.8828 109.194 93.6374 106.217 93.6374H89.9775C87.0003 93.6374 84.5645 91.8828 84.5645 89.7381V62.4431H62.4387C57.6007 62.4431 55.1987 58.2514 58.6157 55.79L94.2741 30.1035C96.3717 28.5925 99.8225 28.5925 101.92 30.1035L137.578 55.79C140.995 58.2514 138.56 62.4431 133.755 62.4431Z" fill="#5E9BFF"/>
</svg>
